<?xml version="1.0" encoding="UTF-8" standalone="no"?>
<!-- Created with Inkscape (http://www.inkscape.org/) -->

<svg
   version="1.1"
   id="svg1"
   width="700"
   height="420"
   viewBox="0 0 700 420"
   xmlns="http://www.w3.org/2000/svg"
   xmlns:svg="http://www.w3.org/2000/svg">
  <defs
     id="defs1" />
  <g
     id="g1">
    <path
       style="opacity:1;fill:#ffffff;fill-opacity:1;stroke-width:1.64415"
       d="m 582.64151,40.607043 -13.24204,62.079237 -282.44493,1.46239 c -11.53863,0.33827 -26.47126,14.33356 -28.7202,24.68272 l -60.89918,248.36265 -74.70477,-0.16997 65.17628,-270.73867 c 0,0 2.62816,-19.102672 29.40157,-44.625165 19.95312,-19.020857 43.26172,-22.490197 54.94676,-22.648068 104.12177,-1.406786 310.48651,1.594876 310.48651,1.594876 z"
       id="path1" />
    <path
       style="fill:#ffffff;fill-opacity:1;stroke-width:1.64415"
       d="m 296.04476,274.88344 -11.86209,50.62575 115.65546,-0.21183 c 20.36818,-1.75298 26.07114,-5.33291 40.54941,-12.91409 11.40524,-8.88027 23.23006,-20.50571 30.6814,-31.64536 l 9.94886,-20.37188 21.6298,-94.46755 -179.28857,0.7489 -11.00895,44.78467 106.46439,1.34021 -7.07058,33.30178 c -4.09562,13.10371 -17.10827,26.91774 -43.11021,28.4221 z"
       id="path2" />
  </g>
</svg>
